<svg width="160" height="40" viewBox="0 0 160 40" fill="none" xmlns="http://www.w3.org/2000/svg">
  <path d="M20 30C12.268 30 6 23.732 6 16C6 8.26801 12.268 2 20 2C27.732 2 34 8.26801 34 16C34 23.732 27.732 30 20 30ZM20 9.5C18.6193 9.5 17.5 10.6193 17.5 12C17.5 13.3807 18.6193 14.5 20 14.5C21.3807 14.5 22.5 13.3807 22.5 12C22.5 10.6193 21.3807 9.5 20 9.5ZM13.5 18C12.1193 18 11 19.1193 11 20.5C11 21.8807 12.1193 23 13.5 23C14.8807 23 16 21.8807 16 20.5C16 19.1193 14.8807 18 13.5 18ZM26.5 18C25.1193 18 24 19.1193 24 20.5C24 21.8807 25.1193 23 26.5 23C27.8807 23 29 21.8807 29 20.5C29 19.1193 27.8807 18 26.5 18ZM20 17.5C17.7909 17.5 16 19.2909 16 21.5C16 23.7091 17.7909 25.5 20 25.5C22.2091 25.5 24 23.7091 24 21.5C24 19.2909 22.2091 17.5 20 17.5Z" fill="#4FA9E1"/>
  <text x="45" y="27" font-family="PT Sans, sans-serif" font-size="20" font-weight="bold" fill="#272F3D">PetVerse</text>
</svg>
